<svg xmlns="http://www.w3.org/2000/svg" xmlns:svg="http://www.w3.org/2000/svg" version="1.1" viewBox="1.46 0.96 69.42 69.41">
 <g>
  <path d="m44.84,15.37c2.07,1.74 4.09,3.6 6.06,5.56c17.14,17.15 25.03,37.43 16.5,45.97c-5.01,5 -14.04,4.44 -24.44,-0.65c-1.24,-0.6 -1.75,-2.1 -1.15,-3.34c0.61,-1.24 2.11,-1.75 3.35,-1.15c8.7,4.25 15.62,4.69 18.7,1.6c5.79,-5.79 -1.09,-23.49 -16.5,-38.89c-1.86,-1.86 -3.79,-3.63 -5.74,-5.28c-1.06,-0.89 -1.19,-2.46 -0.3,-3.52c0.89,-1.06 2.46,-1.19 3.52,-0.3zm11.32,25.49c1.06,0.9 1.19,2.48 0.29,3.53c-1.7,2 -3.55,4.01 -5.55,6.01c-17.15,17.14 -37.43,25.03 -45.96,16.5c-5.01,-5.01 -4.44,-14.02 0.63,-24.42c0.61,-1.24 2.11,-1.76 3.34,-1.15c1.25,0.6 1.76,2.1 1.16,3.34c-4.25,8.69 -4.68,15.61 -1.6,18.69c5.79,5.79 23.49,-1.1 38.89,-16.5c1.91,-1.9 3.67,-3.81 5.28,-5.71c0.9,-1.05 2.47,-1.18 3.52,-0.29zm-26.8,-35.79c1.23,0.61 1.75,2.11 1.14,3.34c-0.6,1.25 -2.1,1.76 -3.34,1.16c-8.69,-4.25 -15.61,-4.68 -18.69,-1.6c-5.79,5.79 1.1,23.49 16.5,38.89c1.86,1.87 3.78,3.62 5.73,5.27c1.06,0.89 1.19,2.47 0.3,3.52c-0.89,1.06 -2.47,1.19 -3.52,0.3c-2.06,-1.73 -4.08,-3.59 -6.05,-5.55c-17.14,-17.15 -25.03,-37.43 -16.49,-45.96c5,-5.01 14.02,-4.44 24.41,0.63l0.01,0zm6.94,21.92c0.51,0.13 0.9,0.53 1.03,1.04l1.03,4.32c0.18,0.75 0.75,1.34 1.5,1.55l3.81,1.07c0.7,0.19 1.1,0.92 0.91,1.62c-0.13,0.45 -0.5,0.81 -0.96,0.92l-3.61,0.86c-0.8,0.2 -1.4,0.82 -1.58,1.62l-1.07,4.92c-0.17,0.75 -0.91,1.23 -1.66,1.07c-0.53,-0.12 -0.94,-0.53 -1.06,-1.07l-1.07,-4.91c-0.17,-0.8 -0.79,-1.43 -1.59,-1.62l-3.74,-0.88c-0.71,-0.16 -1.15,-0.88 -0.98,-1.59c0.11,-0.46 0.47,-0.84 0.93,-0.96l3.76,-1.06c0.73,-0.2 1.29,-0.78 1.48,-1.51l1.14,-4.38c0.2,-0.75 0.97,-1.21 1.73,-1.01zm31.1,-22.55c5.01,5 4.44,14.06 -0.64,24.47c-0.61,1.24 -2.11,1.75 -3.35,1.15c-1.24,-0.61 -1.75,-2.1 -1.14,-3.35c4.25,-8.71 4.68,-15.65 1.59,-18.74c-5.79,-5.79 -23.49,1.1 -38.89,16.5c-1.87,1.87 -3.65,3.8 -5.3,5.77c-0.89,1.06 -2.46,1.19 -3.52,0.3c-1.06,-0.89 -1.19,-2.46 -0.3,-3.52c1.74,-2.07 3.61,-4.11 5.58,-6.09c17.15,-17.14 37.43,-25.03 45.97,-16.49z"/>
 </g>
</svg>